PathFileType	4	(X/Y/Z)	walk-thru1-4-TP.trc
DataRate	CameraRate	NumFrames	NumMarkers	Units	OrigDataRate	OrigDataStartFrame	OrigNumFrames
120.00	120.00	       5	60	mm	120.00	445	       508
Frame#	Time	Top.Head			Front.Head			Rear.Head			Jaw			C7			R.Clavicle			L.Clavicle			R.Shoulder			L.Shoulder			R.Scapula			L.Scapula			R.Scap.Inf			R.Biceps.Lateral			R.Elbow			R.Elbow.Medial			R.Forearm			R.Ulna			R.Radius			R.Wrist			R.Thumb.M1			R.Thumb.M2			R.Thumb.M3			R.Finger3.M1			R.Finger3.M2			R.Finger3.M3			L.Biceps.Lateral			L.Elbow			L.Elbow.Medial			L.Forearm			L.Ulna			L.Radius			L.Wrist			L.Thumb.M1			L.Thumb.M2			L.Thumb.M3			L.Finger3.M1			L.Finger3.M2			L.Finger3.M3			V.Sacral			R.ASIS			L.ASIS			R.Thigh			R.Thigh.Front			R.Knee			R.Knee.Medial			R.Shank			R.Ankle			R.Ankle.Medial			R.Heel			R.Toe			R.MedFoot			L.Thigh			L.Knee			L.Knee.Medial			L.Shank			L.Ankle			L.Ankle.Medial			L.Heel			L.Toe			L.MedFoot			V_mid_ASIS			V_R_Knee_JC			V_L_Knee_JC			V_R_Elbow_JC			V_L_Elbow_JC			V_R_Ankle_JC			V_L_Ankle_JC			V_R_Wrist_JC			V_L_Wrist_JC			V_R_ScaTrpz_1stMC_JC			V_R_1stMC_1stPP_JC			V_R_1stPP_1stDP_JC			V_R_LunCap_3rdMC_JC			V_R_3rdMC_3rdPP_JC			V_R_3rdPP_3rdMP_JC			V_R_3rdMP_3rdDP_JC			V_L_ScaTrpz_1stMC_JC			V_L_1stMC_1stPP_JC			V_L_1stPP_1stDP_JC			V_L_LunCap_3rdMC_JC			V_L_3rdMC_3rdPP_JC			V_L_3rdPP_3rdMP_JC			V_L_3rdMP_3rdPP_JC			V_ROOT_JC			V_R_Hip_JC			V_L_Hip_JC			V_R_GlenHum_JC			V_L_GlenHum_JC			V_ForeHead_Ctr			V_Vertex			V_Sagit_Lambdoid_Suture			V_R_FrontoTemp			V_L_FrontoTemporal			V_R_ParietalOccip			V_L_ParietalOcciptal			V_R_Temporal			V_L_Temporal			V_mid_FrontRearHead			V_mid_RLGlenHumCtrs			V_C7_vert			V_C1_vert			V_Mid_Hip			
		X1	Y1	Z1	X2	Y2	Z2	X3	Y3	Z3	X4	Y4	Z4	X5	Y5	Z5	X6	Y6	Z6	X7	Y7	Z7	X8	Y8	Z8	X9	Y9	Z9	X10	Y10	Z10	X11	Y11	Z11	X12	Y12	Z12	X13	Y13	Z13	X14	Y14	Z14	X15	Y15	Z15	X16	Y16	Z16	X17	Y17	Z17	X18	Y18	Z18	X19	Y19	Z19	X20	Y20	Z20	X21	Y21	Z21	X22	Y22	Z22	X23	Y23	Z23	X24	Y24	Z24	X25	Y25	Z25	X26	Y26	Z26	X27	Y27	Z27	X28	Y28	Z28	X29	Y29	Z29	X30	Y30	Z30	X31	Y31	Z31	X32	Y32	Z32	X33	Y33	Z33	X34	Y34	Z34	X35	Y35	Z35	X36	Y36	Z36	X37	Y37	Z37	X38	Y38	Z38	X39	Y39	Z39	X40	Y40	Z40	X41	Y41	Z41	X42	Y42	Z42	X43	Y43	Z43	X44	Y44	Z44	X45	Y45	Z45	X46	Y46	Z46	X47	Y47	Z47	X48	Y48	Z48	X49	Y49	Z49	X50	Y50	Z50	X51	Y51	Z51	X52	Y52	Z52	X53	Y53	Z53	X54	Y54	Z54	X55	Y55	Z55	X56	Y56	Z56	X57	Y57	Z57	X58	Y58	Z58	X59	Y59	Z59	X60	Y60	Z60	

445	3.700	1268.63940	158.66272	1764.68677	1365.02917	128.83896	1642.05566	1136.33813	171.47859	1694.25818	1271.42737	130.97940	1470.48865	1039.19385	158.77435	1569.54370	1127.23950	30.96106	1494.82483	1152.30579	271.91107	1470.70935	1069.65906	-72.26471	1492.18091	1116.79871	378.24094	1466.86145	965.42102	64.53605	1486.37915	977.32660	256.97104	1471.23535	932.61951	60.08942	1396.03271	1027.63635	-110.75654	1356.22266	959.74817	-146.79022	1177.68237	965.19208	-49.08201	1163.05237	1056.41602	-146.29382	1113.19397	999.76837	-160.27559	978.91864	1112.46191	-149.28181	949.56793	1114.91138	-195.90414	920.51941	1129.22327	-143.42587	903.17444	1122.23608	-111.68790	857.52136	1113.11987	-110.85665	808.14178	1127.58496	-206.65958	837.32825	1083.83105	-164.70119	783.01111	1062.46594	-118.82173	824.96667	1057.19434	407.74860	1324.53589	988.44659	424.30988	1157.51636	971.35181	329.31836	1134.19604	1068.64294	420.47791	1073.15723	1005.33490	446.80499	970.28809	1098.78516	422.95966	911.09100	1076.77820	464.73889	878.06500	1120.04346	422.18668	854.84204	1137.74329	395.42932	810.04547	1143.84424	397.70023	759.86652	1097.97095	473.84949	777.51862	1096.82532	441.22046	719.78955	1089.39966	382.19656	721.76038	914.64948	150.80531	1120.46167	1091.43945	-56.41605	1060.30103	1114.72388	294.79065	1061.50781	1088.34595	-55.54033	680.12488	1175.79150	7.08328	565.58307	1106.69263	-41.85752	513.97473	1118.06116	72.47158	510.25507	1006.86890	2.93439	315.89697	800.38892	-9.72920	177.90405	845.56824	87.99722	179.59795	740.18506	54.28788	173.74214	922.26117	10.03244	58.02962	905.12836	47.67676	112.53159	1119.50867	294.53079	675.77008	1140.84863	267.09909	533.55939	1133.34961	159.62753	517.44061	1147.67542	220.09900	325.89847	1047.64136	220.79257	76.65789	1096.23120	134.07579	112.16029	1011.55267	149.75949	46.52674	1231.83240	211.08987	44.08477	1167.32104	171.37944	86.94844																																																																																																																															
446	3.708	1274.95325	158.94827	1764.30493	1370.30371	129.18680	1641.59412	1142.45068	173.28125	1693.81116	1276.49377	132.76045	1469.25500	1043.93860	161.22243	1571.88098	1131.66248	31.69730	1494.69409	1158.48853	272.28845	1470.19849	1075.10889	-71.77062	1492.35559	1122.32886	377.18341	1467.78296	970.39423	63.30383	1487.05908	982.56415	257.39554	1472.11304	938.36658	59.44423	1396.81213	1031.75903	-109.74859	1356.12561	963.55518	-146.56580	1177.84827	969.55176	-47.84667	1162.95374	1058.72070	-146.79404	1113.00793	1003.86029	-159.47523	977.91949	1114.52930	-148.61636	950.25238	1118.00269	-195.24348	920.48444	1131.48621	-141.87602	904.49847	1125.75293	-109.64693	860.01599	1115.40674	-103.85577	810.82446	1131.24646	-202.42670	834.31720	1086.25659	-157.08659	784.11792	1066.32886	-112.69225	826.86584	1064.59216	408.32983	1323.92578	996.11749	426.54947	1157.68225	977.30682	331.48022	1134.06641	1075.53516	421.76166	1073.34802	1012.67029	448.32690	971.02777	1106.00317	424.80823	911.60693	1085.45850	466.91925	878.46033	1128.05505	422.97495	855.81561	1145.16077	397.14536	810.32990	1151.28857	398.40363	760.62708	1106.80066	475.67892	778.66797	1105.15381	443.21024	720.36218	1096.01782	383.87735	722.31567	919.37494	151.31996	1120.53955	1097.46167	-56.13569	1060.82117	1119.10278	295.68723	1061.37280	1096.46826	-55.97570	681.05591	1185.16125	6.21300	566.57178	1117.16602	-42.46556	515.47375	1128.54663	73.16400	511.30978	1017.07788	2.65466	317.69775	810.69037	-10.35571	180.42050	855.93549	88.58245	180.91391	750.64874	53.47224	175.94261	932.29510	8.40178	59.08121	914.76117	44.67357	113.72370	1122.64807	294.86444	675.77527	1142.36450	268.42386	533.79822	1135.83496	159.04077	516.76678	1148.63379	220.35376	325.18393	1047.50720	221.06160	76.54694	1096.64624	134.44769	112.45447	1011.24347	150.09247	46.47779	1231.78442	211.03860	43.87477	1167.30725	171.60225	87.07635																																																																																																																															
447	3.717	1280.11060	158.75731	1764.69690	1375.46936	128.33041	1640.89502	1147.43262	173.29608	1694.31873	1281.46887	133.26369	1468.74731	1049.41968	161.50534	1572.06726	1136.69861	32.50552	1494.55237	1163.78271	272.46933	1470.67883	1078.75537	-70.23541	1492.59204	1127.73242	378.94452	1467.73242	975.20898	65.53191	1486.97253	987.58893	259.93085	1472.64771	942.65668	60.65744	1396.77441	1035.36694	-108.09885	1356.70984	965.71161	-145.07556	1178.04480	972.86127	-46.36832	1163.54871	1060.84973	-146.64828	1113.38416	1005.95917	-158.75212	978.03571	1118.15149	-150.16757	950.37744	1120.99597	-195.96432	920.47241	1133.84058	-142.25125	905.99738	1129.87427	-108.27013	863.78046	1120.08105	-100.35799	812.41418	1132.10962	-199.08630	834.60297	1088.95850	-149.55777	785.57544	1068.90063	-107.49349	828.73816	1071.68433	409.77914	1324.33179	1002.47772	428.46933	1158.02625	983.84363	334.71442	1133.83130	1082.45142	422.63913	1073.69006	1020.77209	449.94339	971.28998	1113.80408	426.07855	912.63269	1092.96118	468.37173	878.66669	1135.64990	424.92120	856.08734	1152.50195	398.15866	810.91046	1159.97900	398.19547	761.69910	1114.61853	477.70242	778.59808	1112.21582	443.44214	721.41296	1103.34680	385.49197	722.62378	924.40790	151.78946	1120.87036	1101.91907	-54.93498	1060.54883	1123.42456	297.82425	1061.80139	1104.84204	-55.30044	681.49048	1194.56421	6.05667	569.71790	1128.37439	-42.45663	516.64746	1140.03064	73.58098	512.99420	1028.20178	2.23780	318.88019	821.34729	-10.63599	181.60921	866.05035	86.37305	182.53984	760.74969	52.95135	177.52644	941.84686	6.64444	61.31172	926.65802	41.99331	115.57942	1126.04138	295.55066	675.11945	1145.04285	269.40332	533.72302	1137.34094	160.03348	516.55566	1149.24988	220.26649	324.36316	1044.63062	222.55078	76.49403	1096.84753	134.63875	112.49455	1011.27197	149.91814	46.43396	1231.60510	211.22882	43.64218	1167.36462	172.05194	87.10146																																																																																																																															
448	3.725	1285.64355	158.74545	1764.29456	1380.78174	129.27727	1639.88391	1153.56848	175.62212	1694.61340	1286.00415	133.80931	1468.86414	1055.14819	162.91582	1571.84753	1141.81860	32.92361	1494.32690	1169.58643	273.06802	1471.19519	1083.67224	-69.71927	1492.38843	1134.28699	380.15628	1468.15381	980.62292	66.09969	1486.66223	992.96100	259.62595	1472.72388	947.80725	61.79691	1397.13916	1039.22180	-107.46315	1356.83423	970.55670	-143.61180	1178.56018	975.26202	-44.67371	1164.12598	1064.69055	-146.50357	1113.76038	1008.18573	-157.00624	977.13745	1120.75427	-150.68500	950.16962	1122.34485	-196.22057	919.78442	1136.80505	-141.45370	907.31012	1134.72266	-106.91172	864.72638	1126.25867	-96.93693	815.20319	1135.33923	-197.34605	833.30981	1093.44360	-145.49942	786.03119	1071.22156	-104.44823	831.26923	1077.39722	411.05685	1324.29333	1008.95953	430.64734	1158.47961	990.75208	337.30969	1133.80188	1090.51599	423.64774	1073.89709	1028.68420	451.91617	971.66486	1121.56763	427.60092	912.70837	1101.45850	470.13425	879.31348	1143.10718	426.47791	856.38770	1160.70850	399.24536	812.14490	1166.88977	399.67554	762.25861	1122.04297	478.84351	779.65430	1120.67749	445.71198	722.24945	1111.20581	387.82416	723.24133	928.94830	152.62215	1120.84729	1106.16113	-53.64333	1060.84412	1127.70740	298.86569	1061.71497	1113.83350	-55.35175	682.70770	1204.46033	6.14724	570.09131	1139.28467	-42.58100	517.45355	1150.09583	74.09801	514.41443	1038.51746	1.85703	320.30273	832.13116	-12.08657	182.82896	876.88641	86.07642	184.02863	771.56305	51.72512	178.58806	953.73401	6.19227	61.64639	936.21191	41.68735	116.97475	1128.46484	296.13730	675.50476	1145.80762	269.85663	533.55359	1138.80505	160.24117	516.26550	1149.89136	220.86206	324.32843	1047.84485	220.74487	76.04168	1097.17065	134.30478	112.53395	1011.28973	150.03358	46.50731	1231.55737	211.16753	43.56404	1167.39966	171.92827	87.72540																																																																																																																															
449	3.733	1292.10742	158.17215	1763.81311	1386.35706	128.54657	1639.20068	1159.57703	172.37183	1695.37524	1291.03442	132.96527	1468.91040	1060.66858	164.11319	1571.63953	1146.81116	33.29339	1494.76306	1175.14160	273.71561	1470.92505	1088.47644	-68.56078	1492.53918	1139.89160	379.79800	1468.27332	986.15686	67.09229	1487.11755	998.46136	259.96780	1472.91638	952.24994	62.94478	1397.89893	1043.82275	-106.65067	1356.86633	972.65430	-142.18346	1178.87561	981.56049	-43.77458	1164.56335	1067.73584	-146.93692	1113.58020	1010.26880	-155.59546	976.90729	1122.70557	-150.18808	950.53271	1123.87500	-195.23271	919.29877	1140.09924	-142.20549	908.34296	1139.05884	-107.39803	868.22961	1131.90479	-94.59962	816.92218	1136.91931	-196.57039	833.30835	1097.84680	-140.07240	788.11212	1072.44385	-100.88390	831.52380	1082.79346	411.87558	1324.23315	1016.47314	431.39798	1158.59875	996.99316	339.18854	1133.90771	1097.45654	424.57196	1074.46118	1034.78186	453.76868	972.08972	1129.21985	429.02905	913.09296	1109.18542	472.24554	879.48669	1151.11707	427.77350	857.63489	1167.12854	400.31256	812.29877	1175.31396	400.42255	762.64282	1131.65613	479.31509	779.40955	1128.70679	445.88440	722.50159	1118.89099	388.92017	723.86835	933.50470	153.48819	1121.22986	1111.23047	-52.74487	1061.36047	1132.62244	299.19537	1062.04053	1121.39063	-55.90522	683.98407	1214.53870	6.71757	572.83386	1149.24438	-42.82257	519.49341	1159.94861	75.24976	516.30798	1050.48462	1.16223	321.23181	844.32086	-13.44043	183.35699	888.01062	84.86975	184.59344	783.03796	50.27083	179.01237	965.38635	5.18596	63.24659	946.99939	42.22252	118.09175	1131.18115	296.50183	674.96637	1148.19800	270.13864	532.71143	1140.38110	161.10626	515.72388	1151.14734	220.83620	323.42285	1048.10107	220.96730	76.40159	1097.17065	134.30478	112.53395	1011.13330	149.82884	46.57647	1231.54590	211.54471	43.38951	1167.37061	171.99602	87.49644																																																																																																																															
